<svg version="1.1" id="Layer_1" xmlns="http://www.w3.org/2000/svg" xmlns:xlink="http://www.w3.org/1999/xlink" x="0px" y="0px"
	 width="100%" viewBox="0 0 750 750" enable-background="new 0 0 750 750" xml:space="preserve">
<path fill="#000000" opacity="1.000000" stroke="none" 
	d="
M414.000000,751.000000 
	C276.000000,751.000000 138.500000,751.000000 1.000000,751.000000 
	C1.000000,501.000000 1.000000,251.000000 1.000000,1.000000 
	C251.000000,1.000000 501.000000,1.000000 751.000000,1.000000 
	C751.000000,251.000000 751.000000,501.000000 751.000000,751.000000 
	C638.833313,751.000000 526.666687,751.000000 414.000000,751.000000 
M700.023376,257.148560 
	C701.022400,251.533279 702.054138,245.923599 703.014099,240.301636 
	C705.623413,225.019592 708.145508,209.722412 710.819092,194.451706 
	C712.025818,187.559387 706.845520,180.942993 698.625549,179.856750 
	C696.103333,179.238876 693.595520,178.169739 691.056091,178.088211 
	C683.612183,177.849197 676.155457,177.969437 668.704102,178.012909 
	C661.556824,178.054626 657.190918,181.349197 655.461121,188.258896 
	C654.663940,191.443115 654.364807,194.751999 653.246033,197.544800 
	C651.631592,189.938629 650.938293,181.675888 640.091003,179.942291 
	C637.052551,179.294495 633.984741,178.757584 630.985046,177.963303 
	C628.651306,177.345337 626.010193,176.924530 624.174072,175.533691 
	C591.562988,150.830963 555.698425,132.143417 516.973206,119.381859 
	C497.177612,112.858391 476.672729,108.349144 456.306671,103.731277 
	C432.792938,98.399704 408.727356,96.292183 384.720154,96.284775 
	C362.373047,96.277885 339.982239,98.142349 317.688660,100.080299 
	C290.473297,102.446083 264.058105,109.119942 238.130219,117.523956 
	C214.069122,125.322884 190.610840,134.835083 168.874283,147.800751 
	C152.375488,157.642136 136.825958,169.068512 120.724602,179.591522 
	C118.905754,180.780228 116.172409,181.316452 113.991203,181.061111 
	C107.916809,180.350037 101.932648,178.339417 95.871666,178.148331 
	C81.554504,177.697006 67.213394,177.975128 52.882122,178.014038 
	C44.797886,178.035980 40.707161,180.976685 39.100368,188.787704 
	C36.831734,199.816055 35.010201,210.937622 33.069904,222.031998 
	C27.790779,252.217346 22.435093,282.390381 17.434879,312.622070 
	C16.791636,316.511200 17.186769,321.102661 18.732615,324.659607 
	C20.028442,327.641296 20.351051,330.041504 19.868851,333.067841 
	C17.811464,345.980194 14.880144,358.875092 14.296931,371.867462 
	C13.666943,385.901886 14.816973,400.079803 16.046799,414.120087 
	C18.183208,438.510376 25.343325,461.688385 35.510838,483.827637 
	C54.950356,526.156250 83.957085,560.931335 120.262611,589.917053 
	C154.276108,617.072815 192.186646,637.065735 233.302246,650.688416 
	C253.085327,657.243103 273.477051,662.567566 293.995575,666.134155 
	C316.947235,670.123535 340.306519,672.704651 363.578552,673.628540 
	C383.559479,674.421631 403.721710,672.621094 423.701569,670.828613 
	C439.005951,669.455566 454.282806,666.942688 469.341064,663.822693 
	C508.116852,655.788635 544.983521,642.295105 579.662720,623.077759 
	C586.306396,619.396179 592.604004,615.089966 599.895691,610.929626 
	C601.648438,610.631592 603.401978,610.338318 605.153809,610.034790 
	C630.679626,605.611877 652.388428,593.682007 670.671814,575.673340 
	C681.938599,564.575928 691.168579,551.625854 696.453552,536.680908 
	C700.399170,525.523438 702.266785,513.631104 705.573547,501.604584 
	C710.085388,491.975769 715.000305,482.512329 719.031738,472.686371 
	C730.045715,445.840759 735.838013,417.823608 735.888184,388.789520 
	C735.907349,377.700500 735.005127,366.579742 733.966370,355.525757 
	C732.217163,336.912079 727.872559,318.780762 720.642090,301.586029 
	C714.413574,286.774200 706.880981,272.510712 700.023376,257.148560 
z"/>
<path fill="#022754" opacity="1.000000" stroke="none" 
	d="
M653.839844,198.004364 
	C654.364807,194.751999 654.663940,191.443115 655.461121,188.258896 
	C657.190918,181.349197 661.556824,178.054626 668.704102,178.012909 
	C676.155457,177.969437 683.612183,177.849197 691.056091,178.088211 
	C693.595520,178.169739 696.103333,179.238876 699.162720,180.288696 
	C703.701599,184.507095 704.629150,189.107620 703.696411,194.414932 
	C696.500610,235.356567 689.387207,276.312683 682.217041,317.258820 
	C680.518799,326.957031 676.484375,330.344360 666.731812,330.394958 
	C659.690125,330.431488 652.648010,330.402039 645.606018,330.402039 
	C645.558289,330.883087 645.510559,331.364105 645.462830,331.845154 
	C647.787842,332.250488 650.104736,332.938873 652.439453,333.005737 
	C658.427246,333.177277 664.422913,333.081024 670.415466,333.076721 
	C681.421387,333.068817 684.361328,330.942047 687.887756,320.946625 
	C699.578003,359.415771 700.498108,397.721497 690.964233,437.591217 
	C689.394531,434.664764 688.385254,432.968994 687.547180,431.192444 
	C677.626831,410.163300 661.481750,395.690155 640.307190,386.668243 
	C615.908936,376.272827 590.509766,374.671478 564.880981,380.153809 
	C525.141663,388.654449 493.138062,409.191315 472.505829,444.804260 
	C456.921448,471.704224 453.932556,500.049500 467.886536,528.898987 
	C473.080750,539.637939 478.564026,550.237122 483.544861,560.999023 
	C409.956757,585.975830 335.391479,589.488220 259.854736,574.459473 
	C217.471802,566.027039 177.430725,551.277893 141.848816,526.144165 
	C111.977448,505.044159 88.412361,479.020721 79.226547,442.357819 
	C79.033958,441.589172 78.802872,440.830109 78.589745,440.066589 
	C77.273552,441.584869 76.962555,442.068481 77.034470,442.486237 
	C80.235786,461.083557 86.829315,478.298737 97.769524,493.788330 
	C116.591965,520.437866 141.825470,539.393066 170.497314,554.070251 
	C213.515366,576.091431 259.557281,586.991577 307.539551,590.240356 
	C368.739532,594.384155 428.118744,586.509277 485.321716,562.871460 
	C491.145996,569.273438 496.656067,575.521240 501.785492,581.896301 
	C462.986725,593.049133 423.667847,599.087708 383.931274,602.170654 
	C327.688568,606.534302 272.524384,600.551941 218.758667,582.968750 
	C169.125519,566.736938 126.588860,539.981079 93.675636,498.903259 
	C81.211617,483.347412 71.995392,466.162292 67.669617,446.547577 
	C67.403664,445.341675 66.734024,444.224792 66.252205,443.066498 
	C65.153114,444.723206 64.770515,446.105652 65.065628,447.323975 
	C67.798950,458.608154 69.551003,470.284760 73.674797,481.047882 
	C85.255013,511.272217 106.506653,534.124084 132.323578,552.785583 
	C184.748428,590.680481 244.655136,607.522095 308.072662,613.951111 
	C342.696594,617.461121 377.288055,616.634888 411.770355,611.969727 
	C444.906830,607.486694 477.170898,599.596436 508.474854,586.950745 
	C520.767944,596.252991 534.055969,602.889771 548.609741,607.251770 
	C548.191467,607.726196 548.020386,608.054504 547.750244,608.204834 
	C546.009460,609.173584 544.276978,610.164917 542.487305,611.037109 
	C452.873047,654.709412 359.657715,663.055237 263.507507,638.271118 
	C203.013809,622.677917 149.197205,594.184998 105.942413,548.486450 
	C48.559067,487.861053 24.039110,416.899750 42.789883,333.515991 
	C58.524979,333.211121 73.850502,333.474609 89.109138,332.587585 
	C107.711311,331.506226 123.553574,324.564789 134.604889,308.560608 
	C138.328690,303.167938 138.858963,298.218628 135.602783,292.947723 
	C133.580200,297.048248 131.905350,301.438934 129.420395,305.309509 
	C118.676590,322.044098 102.260208,328.871307 83.307014,329.796814 
	C66.376114,330.623505 49.383877,330.189606 32.418865,330.330933 
	C31.035330,330.342499 29.653017,330.500397 28.270138,330.590332 
	C28.225330,330.861298 28.180525,331.132263 28.135719,331.403229 
	C29.451620,331.993744 30.767523,332.584259 32.043831,333.563232 
	C22.690758,375.019928 24.479792,415.627655 37.649193,455.597778 
	C56.350296,512.357056 92.003166,556.621765 139.925812,591.243286 
	C205.021454,638.271423 278.692047,659.922852 358.330902,661.705688 
	C430.124176,663.312927 498.016266,647.550354 561.065247,612.463562 
	C562.589417,611.615417 564.465881,610.979919 566.183228,610.967712 
	C577.141785,610.889526 588.101807,611.014160 599.061340,611.072021 
	C592.604004,615.089966 586.306396,619.396179 579.662720,623.077759 
	C544.983521,642.295105 508.116852,655.788635 469.341064,663.822693 
	C454.282806,666.942688 439.005951,669.455566 423.701569,670.828613 
	C403.721710,672.621094 383.559479,674.421631 363.578552,673.628540 
	C340.306519,672.704651 316.947235,670.123535 293.995575,666.134155 
	C273.477051,662.567566 253.085327,657.243103 233.302246,650.688416 
	C192.186646,637.065735 154.276108,617.072815 120.262611,589.917053 
	C83.957085,560.931335 54.950356,526.156250 35.510838,483.827637 
	C25.343325,461.688385 18.183208,438.510376 16.046799,414.120087 
	C14.816973,400.079803 13.666943,385.901886 14.296931,371.867462 
	C14.880144,358.875092 17.811464,345.980194 19.868851,333.067841 
	C20.351051,330.041504 20.028442,327.641296 18.732615,324.659607 
	C17.186769,321.102661 16.791636,316.511200 17.434879,312.622070 
	C22.435093,282.390381 27.790779,252.217346 33.069904,222.031998 
	C35.010201,210.937622 36.831734,199.816055 39.100368,188.787704 
	C40.707161,180.976685 44.797886,178.035980 52.882122,178.014038 
	C67.213394,177.975128 81.554504,177.697006 95.871666,178.148331 
	C101.932648,178.339417 107.916809,180.350037 113.991203,181.061111 
	C116.172409,181.316452 118.905754,180.780228 120.724602,179.591522 
	C136.825958,169.068512 152.375488,157.642136 168.874283,147.800751 
	C190.610840,134.835083 214.069122,125.322884 238.130219,117.523956 
	C264.058105,109.119942 290.473297,102.446083 317.688660,100.080299 
	C339.982239,98.142349 362.373047,96.277885 384.720154,96.284775 
	C408.727356,96.292183 432.792938,98.399704 456.306671,103.731277 
	C476.672729,108.349144 497.177612,112.858391 516.973206,119.381859 
	C555.698425,132.143417 591.562988,150.830963 624.174072,175.533691 
	C626.010193,176.924530 628.651306,177.345337 630.985046,177.963303 
	C633.984741,178.757584 637.052551,179.294495 640.564209,180.367523 
	C642.692017,184.512222 644.747253,188.111099 645.911621,191.978210 
	C647.875366,198.500107 649.274292,205.192078 650.910828,211.812500 
	C651.210327,211.754898 651.509888,211.697281 651.809387,211.639664 
	C652.486206,207.094559 653.163025,202.549454 653.839844,198.004364 
M130.001801,189.970306 
	C130.001801,189.970306 129.999069,189.862167 130.346420,190.390259 
	C130.906952,190.609116 131.467484,190.827988 131.961456,191.059341 
	C131.961456,191.059341 131.947098,190.993164 132.046616,191.672714 
	C138.781464,198.703064 143.197449,206.928040 144.344650,217.143768 
	C148.239807,212.714172 147.975754,208.698135 145.180130,204.752457 
	C142.401489,200.830704 139.429611,197.045883 137.080505,192.711563 
	C161.998291,173.123688 189.311447,157.662201 218.704941,145.938446 
	C289.496643,117.702835 362.537811,110.845016 437.477966,123.826180 
	C493.105408,133.461975 544.238647,154.087448 589.972717,187.524796 
	C592.071411,189.059189 594.204346,190.546692 596.298523,192.039764 
	C597.458923,188.487640 598.468201,185.397903 599.487976,182.276230 
	C598.004028,181.138153 596.710449,180.098053 595.368835,179.124100 
	C540.271362,139.125336 478.364227,117.160248 411.004089,109.956268 
	C349.974854,103.429352 290.316711,109.913742 232.284714,130.110504 
	C195.526443,142.903427 161.500671,160.857285 130.858078,184.986694 
	C129.760406,185.851013 129.302826,187.528229 129.002197,189.304382 
	C129.371429,189.525116 129.740662,189.745850 130.001801,189.970306 
M214.953827,355.153107 
	C214.495880,355.205231 214.037918,355.257385 213.579971,355.309509 
	C214.003235,355.593597 214.426498,355.877716 215.116028,356.779266 
	C225.789673,368.040649 229.468460,381.958221 230.241852,397.342407 
	C235.209412,380.637054 229.363037,364.383179 214.953827,355.153107 
M569.909790,187.295563 
	C569.488525,187.328766 569.067200,187.361969 568.645935,187.395172 
	C569.084900,187.609634 569.523865,187.824097 570.194641,188.669449 
	C583.199463,201.659225 587.954346,217.893372 588.488892,235.813583 
	C591.601807,226.792542 592.373840,218.004730 587.926758,209.233994 
	C583.611206,200.722610 579.043335,192.511963 569.909790,187.295563 
M219.045074,436.734314 
	C218.915543,436.746216 218.786026,436.758118 218.656494,436.770050 
	C218.781693,436.840729 218.906906,436.911407 219.121460,437.746246 
	C219.700058,440.955383 221.117294,444.271057 220.725449,447.356964 
	C217.394989,473.584900 196.546906,494.411530 170.218536,498.019897 
	C164.779388,498.765381 159.258163,498.911926 153.774750,499.334534 
	C153.756897,499.747711 153.739029,500.160889 153.721161,500.574066 
	C156.717407,500.844910 159.708679,501.204590 162.710678,501.372742 
	C189.167267,502.854218 212.924286,487.891663 222.360199,463.766449 
	C223.073181,461.943542 223.692764,459.940216 223.707977,458.015656 
	C223.751282,452.540344 223.435837,447.062988 223.308685,441.585327 
	C223.241394,438.686768 222.261490,436.761444 219.045074,436.734314 
M443.807587,359.458252 
	C443.407837,359.408508 443.008118,359.358765 442.608368,359.309021 
	C442.862335,359.747162 443.116302,360.185272 443.750458,361.177521 
	C462.654541,384.251190 458.114807,419.254608 434.116791,436.889465 
	C420.592255,446.827942 405.229462,450.037994 388.915771,449.881744 
	C385.077240,449.844971 383.378601,450.715179 382.818604,454.866180 
	C381.485016,464.751953 379.566284,474.560120 377.822388,484.388733 
	C376.253021,493.233429 371.829987,496.890839 362.684113,496.956207 
	C356.688629,496.999054 350.692505,496.946320 344.696930,496.983307 
	C343.511902,496.990601 342.328156,497.212067 341.143829,497.334747 
	C343.854706,498.901947 346.555237,499.555573 349.271698,499.630493 
	C355.429352,499.800323 361.595184,499.724335 367.757141,499.676544 
	C377.174469,499.603516 381.476379,495.995758 383.118500,486.770691 
	C384.839691,477.101532 386.673157,467.446472 388.085205,457.731110 
	C388.661774,453.764282 390.276947,452.479889 394.223022,452.584839 
	C399.027863,452.712646 403.871674,452.258759 408.666168,451.750458 
	C442.719360,448.140442 465.216827,419.945496 459.976166,386.985657 
	C458.246887,376.109924 453.959290,366.239685 443.807587,359.458252 
M130.976059,231.159241 
	C132.839767,222.661957 133.191299,214.393539 128.189087,206.614609 
	C121.188339,195.727783 110.345276,191.839081 98.402061,191.096207 
	C84.119438,190.207809 69.764877,190.522537 55.447128,190.116882 
	C52.208450,190.025116 51.333012,191.189346 50.811306,194.261200 
	C46.048363,222.305771 41.057377,250.311493 36.176285,278.336121 
	C33.898926,291.411499 31.716824,304.503479 29.453768,317.810089 
	C30.868242,317.961151 31.837294,318.154205 32.806465,318.154816 
	C47.633835,318.164154 62.473713,318.504883 77.283241,317.985687 
	C84.514961,317.732117 92.007919,316.814880 98.824944,314.532379 
	C113.159401,309.732849 122.309753,299.539459 124.642769,284.330170 
	C126.698616,270.927704 123.473442,259.462891 109.802780,252.755066 
	C119.607162,248.094818 127.248734,242.050018 130.976059,231.159241 
M595.869019,268.297668 
	C592.993530,284.761200 590.118042,301.224731 587.159058,318.165863 
	C594.753235,318.165863 601.730835,318.311340 608.690186,318.020630 
	C609.830566,317.972992 611.649780,316.142944 611.875000,314.904022 
	C615.711853,293.796967 619.335754,272.651276 623.034607,251.518997 
	C623.831299,246.967300 624.737976,242.434845 625.594055,237.893539 
	C625.945557,237.939209 626.297119,237.984879 626.648621,238.030548 
	C633.174438,264.625336 639.700195,291.220123 646.236938,317.859711 
	C654.275696,317.859711 662.027954,317.859711 669.843994,317.859711 
	C677.246277,275.239044 684.597961,232.909409 691.995667,190.315216 
	C683.659851,190.315216 676.028137,190.315216 667.865845,190.315216 
	C663.132507,217.206192 658.404907,244.064789 653.677246,270.923401 
	C653.348083,270.947723 653.018982,270.972015 652.689819,270.996307 
	C646.169495,244.117508 639.649231,217.238678 633.156311,190.472900 
	C624.929321,190.472900 617.163940,190.472900 609.265015,190.472900 
	C604.804260,216.311615 600.391357,241.872711 595.869019,268.297668 
M206.608124,188.949066 
	C188.752319,187.044434 174.857300,194.075897 164.153122,208.000656 
	C153.859085,221.391846 150.410950,237.239197 148.002731,253.493225 
	C146.338699,264.724426 144.715515,275.928101 147.095978,287.214111 
	C150.101837,301.465088 156.483887,313.390015 171.455841,317.962341 
	C190.595703,323.807495 210.449432,317.538971 221.931702,301.117889 
	C239.279861,276.307892 243.784943,248.226944 238.774750,218.891266 
	C235.868515,201.874771 223.653641,191.455780 206.608124,188.949066 
M481.665985,284.704712 
	C484.368622,300.161774 490.556183,313.191620 506.927643,318.073883 
	C525.873352,323.723846 544.957214,316.929779 557.114990,301.166412 
	C567.791443,287.323608 571.497314,271.129517 574.088562,254.358398 
	C576.119568,241.213577 577.107849,228.256958 572.957397,215.322205 
	C568.067627,200.083694 556.097900,190.187561 540.692017,188.882996 
	C520.046509,187.134735 505.120270,196.635529 495.354980,213.813538 
	C483.066681,235.429840 480.479431,259.376343 481.665985,284.704712 
M288.817474,483.499908 
	C304.511566,477.415741 313.401642,465.147461 316.830994,449.517303 
	C321.355133,428.897400 324.390930,407.949890 328.019012,387.134949 
	C329.749542,377.206482 331.370178,367.258911 333.071411,357.136627 
	C324.801819,357.136627 317.049683,357.136627 309.191498,357.136627 
	C304.423981,385.130341 299.766205,412.855316 294.948395,440.552429 
	C293.393677,449.490326 291.144470,458.192139 282.938782,463.782867 
	C275.057739,469.152435 260.893066,467.687103 259.860321,453.136902 
	C259.648987,450.159790 259.359680,447.094543 259.811676,444.179291 
	C262.615479,426.093933 265.608978,408.037842 268.563202,389.975922 
	C270.347565,379.066833 272.174744,368.164764 274.007446,357.110107 
	C265.669250,357.110107 257.909668,357.110107 250.163101,357.110107 
	C249.795288,358.673309 249.417938,359.956940 249.196289,361.266968 
	C245.726273,381.776154 242.243439,402.283295 238.834824,422.802734 
	C236.959061,434.094666 234.111938,445.223602 235.856018,456.941528 
	C237.911453,470.751160 246.555099,481.507080 260.038025,485.094330 
	C269.458649,487.600769 278.852386,486.679901 288.817474,483.499908 
M357.094910,393.606689 
	C351.899078,423.838501 346.703278,454.070312 341.416229,484.832977 
	C349.051453,484.832977 355.859802,484.981873 362.649170,484.689117 
	C363.805695,484.639252 365.630341,482.844543 365.874176,481.605530 
	C367.768066,471.982605 369.315826,462.292145 371.042816,452.635498 
	C371.887756,447.911072 371.383545,441.503143 374.243073,438.991241 
	C377.041077,436.533447 383.338013,438.046478 388.100342,437.845276 
	C389.430115,437.789062 390.764740,437.859161 392.096222,437.829498 
	C403.942871,437.565460 415.019501,435.040771 425.134552,428.320190 
	C441.746185,417.283112 448.491455,394.404144 439.437653,376.784149 
	C432.090820,362.486237 419.149292,357.290070 403.946503,356.902496 
	C391.299683,356.580078 378.638123,356.830139 365.983124,356.852539 
	C365.196716,356.853912 364.410675,357.081512 363.498291,357.223511 
	C361.380066,369.218689 359.302277,380.984650 357.094910,393.606689 
M201.874725,464.312805 
	C204.513123,458.024353 207.151535,451.735901 209.964630,445.031067 
	C200.671219,445.031067 192.936646,445.031067 185.811752,445.031067 
	C183.950562,449.297699 182.699112,453.139893 180.703049,456.545715 
	C176.126129,464.355164 166.665131,468.003143 157.270294,466.008911 
	C150.843796,464.644775 146.250854,458.747162 145.840134,449.165497 
	C145.500488,441.242249 146.159546,433.208313 147.116577,425.313171 
	C148.574554,413.285278 149.703995,401.122040 155.099838,389.943817 
	C157.950958,384.037323 162.066055,379.480988 168.112457,376.714996 
	C180.548126,371.026093 192.584473,377.815826 193.952621,391.371155 
	C194.164581,393.471191 194.237381,395.585297 194.380402,397.782959 
	C202.468414,397.782959 210.069489,397.782959 218.115891,397.782959 
	C217.354126,382.655701 213.695572,369.231110 200.065887,360.829559 
	C181.211472,349.207458 153.984024,354.760620 140.371765,373.885193 
	C122.868805,398.476166 118.971123,426.525635 123.210274,455.732239 
	C124.858238,467.086243 130.923325,476.592407 141.727570,482.149872 
	C159.012711,491.040985 187.795044,486.835938 201.874725,464.312805 
M411.707642,213.014053 
	C405.624969,247.869583 399.542328,282.725128 393.428711,317.757935 
	C401.909119,317.757935 409.786469,317.757935 417.626984,317.757935 
	C423.879791,281.834778 430.061096,246.322449 436.293518,210.516418 
	C438.570526,210.516418 440.383148,210.516479 442.195770,210.516388 
	C451.691681,210.515976 461.189453,210.607040 470.681549,210.416672 
	C472.108795,210.388046 474.518402,209.281097 474.756134,208.269409 
	C476.117950,202.473373 476.960968,196.555435 478.029877,190.392120 
	C444.557373,190.392120 411.447540,190.392120 377.829987,190.392120 
	C376.722198,196.823532 375.606659,203.299881 374.408081,210.258362 
	C376.618988,210.363434 378.226990,210.502213 379.835297,210.505966 
	C388.997955,210.527344 398.161896,210.443817 407.322327,210.588898 
	C408.832428,210.612839 410.327454,211.591232 411.707642,213.014053 
M276.671539,191.040329 
	C276.541992,191.346008 276.347351,191.640396 276.292084,191.958954 
	C270.550873,225.044998 264.811188,258.131287 259.094879,291.221649 
	C257.576233,300.012726 256.131226,308.816467 254.615616,317.833405 
	C282.361450,317.833405 309.570129,317.833405 336.819733,317.833405 
	C337.950684,311.211243 339.026428,304.912506 340.210175,297.981384 
	C320.431244,297.981384 301.393585,297.981384 282.129700,297.981384 
	C288.415131,261.819275 294.603394,226.216232 300.829071,190.397842 
	C292.534302,190.397842 284.904266,190.397842 276.671539,191.040329 
M348.997223,368.549896 
	C349.429321,365.256317 350.142578,361.970062 350.228546,358.667480 
	C350.362366,353.526886 347.490631,349.974884 342.438416,348.679230 
	C346.362305,353.986938 345.013000,359.556671 344.034668,365.147400 
	C338.989532,393.978180 334.450653,422.906677 328.848572,451.628143 
	C323.667175,478.192780 302.992981,495.982147 276.081268,498.483856 
	C272.421783,498.824036 268.742981,498.956421 263.940125,499.255615 
	C265.477356,500.020813 265.869080,500.343597 266.301300,500.412537 
	C285.388000,503.457336 302.373688,499.043091 316.631134,485.739990 
	C328.669342,474.507660 333.530365,459.880493 336.101044,444.068268 
	C340.152954,419.145111 344.614258,394.288452 348.997223,368.549896 
M440.301544,257.742371 
	C436.946869,277.085999 433.629791,296.436249 430.223541,315.770813 
	C428.141663,327.588104 424.788544,330.363800 412.967499,330.375488 
	C406.136902,330.382233 399.306305,330.376709 392.475677,330.376709 
	C392.438629,330.892487 392.401581,331.408264 392.364532,331.924042 
	C394.907043,332.312927 397.442932,332.975708 399.993347,333.037323 
	C406.651917,333.198090 413.316986,333.128387 419.979156,333.090332 
	C429.335510,333.036865 433.612488,329.453552 435.241577,320.153778 
	C440.498016,290.147034 445.768524,260.142334 450.843750,230.104767 
	C451.444489,226.549591 452.795624,225.297791 456.311523,225.429001 
	C461.966461,225.640015 467.639160,225.587967 473.295685,225.394012 
	C474.687683,225.346298 476.046173,224.321472 477.420074,223.745819 
	C468.334503,222.804398 459.861359,222.934799 451.395538,222.741867 
	C447.882599,222.661835 446.082825,223.337723 445.531555,227.381409 
	C444.183960,237.265533 442.220459,247.065674 440.301544,257.742371 
M244.729004,200.924011 
	C246.854736,206.497253 249.785080,211.905563 250.967117,217.672241 
	C256.124634,242.833694 251.471207,267.241119 242.053360,290.410004 
	C231.736908,315.789642 213.072083,331.404205 184.249329,332.023590 
	C183.142929,332.047333 182.051743,332.777496 180.758606,333.249664 
	C181.416550,333.953583 181.601227,334.337128 181.848831,334.383301 
	C182.824158,334.565186 183.816589,334.705292 184.807419,334.746490 
	C197.940964,335.292755 210.481003,333.033112 221.419128,325.425476 
	C234.755219,316.149963 245.008377,304.662598 247.564514,287.641602 
	C250.008850,271.365082 252.621948,255.080200 256.100861,239.002396 
	C259.526978,223.168442 254.749603,209.786987 245.857880,197.306961 
	C243.509827,194.011322 240.183594,191.412582 237.306534,188.493835 
	C237.040604,188.799942 236.774658,189.106049 236.508713,189.412170 
	C239.111526,193.045471 241.714340,196.678787 244.729004,200.924011 
M287.500031,330.295715 
	C276.138275,330.295715 264.776489,330.295715 253.414734,330.295715 
	C253.351608,330.815308 253.288483,331.334900 253.225357,331.854492 
	C256.017487,332.348236 258.798462,333.174652 261.604004,333.268707 
	C268.086304,333.486053 274.580536,333.353638 281.069916,333.353760 
	C300.538177,333.354095 320.006592,333.395630 339.474609,333.325256 
	C347.331726,333.296844 351.737610,330.856323 353.363373,324.459320 
	C355.322205,316.751648 356.654297,308.835052 357.570160,300.929230 
	C358.187408,295.601013 355.177032,292.106140 351.668243,291.461426 
	C351.668243,295.308105 352.006866,299.330170 351.582672,303.270081 
	C351.050293,308.214417 349.887238,313.090424 349.006226,317.997681 
	C347.411682,326.879425 343.512024,330.242645 334.425140,330.277649 
	C319.116974,330.336639 303.808441,330.295349 287.500031,330.295715 
M290.969910,363.678040 
	C291.941528,354.797211 289.825134,350.411713 284.701355,349.001678 
	C285.045044,352.686310 286.254944,356.815155 285.653290,360.660553 
	C282.108124,383.318420 278.045166,405.894745 274.371582,428.533386 
	C273.177643,435.890930 272.516724,443.344208 271.915344,450.778259 
	C271.829651,451.837402 273.466827,453.035950 274.306580,454.170013 
	C275.183228,453.001587 276.452332,451.948761 276.838928,450.636047 
	C277.342163,448.927277 276.974762,446.983734 277.274506,445.190094 
	C281.770111,418.291229 286.313934,391.400421 290.969910,363.678040 
M297.610107,280.050781 
	C297.386566,281.943359 297.162994,283.835938 296.957520,285.575317 
	C301.340607,287.161926 302.466003,285.254486 303.045563,281.822144 
	C306.259583,262.788239 309.632599,243.781174 312.948914,224.764542 
	C314.578522,215.419998 316.248260,206.082138 317.816437,196.727264 
	C319.111450,189.002075 316.775421,184.374832 312.324738,183.072281 
	C312.324738,186.828339 312.902924,191.067474 312.231750,195.098572 
	C307.560883,223.152832 302.630920,251.163956 297.610107,280.050781 
M541.039246,332.548218 
	C552.206360,329.300354 561.295349,322.914886 569.287964,314.561676 
	C576.813171,306.696991 579.638489,297.348663 579.518982,286.604858 
	C565.636658,318.760559 542.753845,336.084015 506.365997,331.596558 
	C517.635437,336.024567 528.908447,335.409637 541.039246,332.548218 
M165.502243,421.111450 
	C167.865540,408.964813 167.533722,395.574432 181.224640,388.468414 
	C176.845474,386.118591 173.126923,386.508728 170.271805,389.600220 
	C168.072464,391.981659 165.807419,394.884460 165.063705,397.920929 
	C162.659332,407.737152 160.519989,417.662048 159.103104,427.661926 
	C158.061691,435.011932 158.172409,442.543121 158.064194,449.997864 
	C158.025391,452.671417 159.143219,454.982086 162.107697,453.967072 
	C163.210892,443.075439 164.279251,432.527802 165.502243,421.111450 
M629.693237,301.062531 
	C629.229187,299.653748 628.765076,298.244934 628.301025,296.836121 
	C626.268005,303.593536 625.063293,310.118378 623.991455,316.665009 
	C622.323364,326.853577 618.335266,330.294556 607.896240,330.326813 
	C600.700806,330.349060 593.505249,330.331085 586.309753,330.331085 
	C587.311646,331.913727 588.464050,332.761719 589.627808,332.777527 
	C599.268066,332.908905 608.975342,333.527496 618.516968,332.562164 
	C621.849548,332.224976 626.376648,328.457214 627.563660,325.228699 
	C630.274719,317.854980 632.444763,309.947906 629.693237,301.062531 
M196.359909,410.061371 
	C195.423553,410.118866 194.487198,410.176392 192.104462,410.322723 
	C194.486740,411.410431 195.591934,412.336639 196.718216,412.363068 
	C206.340668,412.588776 215.968491,412.756500 225.589996,412.617523 
	C226.681229,412.601776 228.179108,410.763794 228.713120,409.454559 
	C229.440903,407.670227 229.423355,405.581940 229.881226,402.613800 
	C225.876862,409.166412 220.464127,410.469208 214.126953,410.120117 
	C208.491562,409.809631 202.825439,410.057190 196.359909,410.061371 
M489.958557,188.155334 
	C489.705963,191.898483 489.453339,195.641632 489.200745,199.384781 
	C489.672668,199.613907 490.144623,199.843033 490.616547,200.072159 
	C492.145111,196.910843 494.613251,193.843536 494.941650,190.562103 
	C495.279510,187.186401 493.048035,184.007721 488.485901,182.864288 
	C489.034271,184.671310 489.442474,186.016479 489.958557,188.155334 
M395.738190,225.320892 
	C395.824646,224.531769 395.911072,223.742630 395.997528,222.953506 
	C388.952606,222.953506 381.907684,222.953506 374.862793,222.953506 
	C374.861694,223.646240 374.860626,224.338974 374.859528,225.031708 
	C381.530121,225.171494 388.200714,225.311295 395.738190,225.320892 
M136.130356,251.301346 
	C136.274094,250.244919 136.417831,249.188477 136.608902,247.784256 
	C129.422348,253.979553 129.339218,254.636703 134.728836,260.318176 
	C135.174927,257.546051 135.617844,254.793671 136.130356,251.301346 
M488.512939,201.405731 
	C488.512939,201.405731 488.448059,201.446167 488.512939,201.405731 
M372.575836,222.534210 
	C372.575836,222.534210 372.537689,222.477142 372.575836,222.534210 
z"/>
<path fill="#DCD1B3" opacity="1.000000" stroke="none" 
	d="
M483.915497,560.900024 
	C478.564026,550.237122 473.080750,539.637939 467.886536,528.898987 
	C453.932556,500.049500 456.921448,471.704224 472.505829,444.804260 
	C493.138062,409.191315 525.141663,388.654449 564.880981,380.153809 
	C590.509766,374.671478 615.908936,376.272827 640.307190,386.668243 
	C661.481750,395.690155 677.626831,410.163300 687.547180,431.192444 
	C688.385254,432.968994 689.394531,434.664764 690.964233,437.591217 
	C700.498108,397.721497 699.578003,359.415771 687.933899,320.555267 
	C688.985779,313.330536 690.102356,306.898041 691.435181,300.770508 
	C710.147034,349.139832 712.515808,397.975037 698.731506,447.607361 
	C698.215820,449.464172 697.653503,451.749878 698.266357,453.409698 
	C704.081543,469.157013 705.455872,485.477722 705.059814,502.066010 
	C702.266785,513.631104 700.399170,525.523438 696.453552,536.680908 
	C691.168579,551.625854 681.938599,564.575928 670.671814,575.673340 
	C652.388428,593.682007 630.679626,605.611877 605.153809,610.034790 
	C603.401978,610.338318 601.648438,610.631592 599.478516,611.000854 
	C588.101807,611.014160 577.141785,610.889526 566.183228,610.967712 
	C564.465881,610.979919 562.589417,611.615417 561.065247,612.463562 
	C498.016266,647.550354 430.124176,663.312927 358.330902,661.705688 
	C278.692047,659.922852 205.021454,638.271423 139.925812,591.243286 
	C92.003166,556.621765 56.350296,512.357056 37.649193,455.597778 
	C24.479792,415.627655 22.690758,375.019928 32.481445,333.494751 
	C36.089321,333.216675 39.219990,333.395538 42.350658,333.574402 
	C24.039110,416.899750 48.559067,487.861053 105.942413,548.486450 
	C149.197205,594.184998 203.013809,622.677917 263.507507,638.271118 
	C359.657715,663.055237 452.873047,654.709412 542.487305,611.037109 
	C544.276978,610.164917 546.009460,609.173584 547.750244,608.204834 
	C548.020386,608.054504 548.191467,607.726196 548.609741,607.251770 
	C534.055969,602.889771 520.767944,596.252991 508.298859,586.673950 
	C505.924988,584.777039 504.045563,583.273071 502.166168,581.769104 
	C496.656067,575.521240 491.145996,569.273438 485.224915,562.618896 
	C484.514435,561.774841 484.214966,561.337402 483.915497,560.900024 
M492.936646,559.041809 
	C492.850677,559.469849 492.764709,559.897827 492.920044,560.957703 
	C519.074707,594.167664 553.506226,608.332458 595.204590,604.056763 
	C658.425415,597.574097 705.998840,540.186584 696.986877,476.928833 
	C696.662354,474.651031 696.056519,472.413330 695.581726,470.156921 
	C688.395996,518.005127 660.201355,549.038391 617.757202,567.404785 
	C575.450134,585.711853 533.338928,585.525513 492.936646,559.041809 
M561.426758,388.016663 
	C534.236938,394.866455 510.768250,408.089325 492.022400,429.110291 
	C476.964935,445.995239 467.035797,465.491974 466.274231,488.380646 
	C465.140778,522.444946 481.429962,546.771057 511.338043,561.667786 
	C540.931335,576.407715 571.900879,576.116028 602.724731,565.893982 
	C637.731323,554.284668 665.200989,533.170044 680.396118,498.686035 
	C698.617065,457.335022 682.483704,414.444916 641.739258,394.885376 
	C616.196838,382.623688 589.505798,381.553955 561.426758,388.016663 
M489.514038,555.848816 
	C489.514038,555.848816 489.425720,556.116028 489.425720,556.116028 
	C489.425720,556.116028 489.625427,555.946594 489.514038,555.848816 
z"/>
<path fill="#012754" opacity="1.000000" stroke="none" 
	d="
M705.316650,501.835297 
	C705.455872,485.477722 704.081543,469.157013 698.266357,453.409698 
	C697.653503,451.749878 698.215820,449.464172 698.731506,447.607361 
	C712.515808,397.975037 710.147034,349.139832 691.438965,300.398529 
	C693.434998,286.761688 695.608398,273.795502 697.918884,260.853790 
	C698.103821,259.817749 699.234009,258.950470 699.924927,258.004822 
	C706.880981,272.510712 714.413574,286.774200 720.642090,301.586029 
	C727.872559,318.780762 732.217163,336.912079 733.966370,355.525757 
	C735.005127,366.579742 735.907349,377.700500 735.888184,388.789520 
	C735.838013,417.823608 730.045715,445.840759 719.031738,472.686371 
	C715.000305,482.512329 710.085388,491.975769 705.316650,501.835297 
z"/>
<path fill="#BE1131" opacity="1.000000" stroke="none" 
	d="
M699.974182,257.576660 
	C699.234009,258.950470 698.103821,259.817749 697.918884,260.853790 
	C695.608398,273.795502 693.434998,286.761688 691.222656,300.093567 
	C690.102356,306.898041 688.985779,313.330536 687.823120,320.154358 
	C684.361328,330.942047 681.421387,333.068817 670.415466,333.076721 
	C664.422913,333.081024 658.427246,333.177277 652.439453,333.005737 
	C650.104736,332.938873 647.787842,332.250488 645.462830,331.845154 
	C645.510559,331.364105 645.558289,330.883087 645.606018,330.402039 
	C652.648010,330.402039 659.690125,330.431488 666.731812,330.394958 
	C676.484375,330.344360 680.518799,326.957031 682.217041,317.258820 
	C689.387207,276.312683 696.500610,235.356567 703.696411,194.414932 
	C704.629150,189.107620 703.701599,184.507095 699.542480,180.447601 
	C706.845520,180.942993 712.025818,187.559387 710.819092,194.451706 
	C708.145508,209.722412 705.623413,225.019592 703.014099,240.301636 
	C702.054138,245.923599 701.022400,251.533279 699.974182,257.576660 
z"/>
<path fill="#C01031" opacity="1.000000" stroke="none" 
	d="
M653.542908,197.774582 
	C653.163025,202.549454 652.486206,207.094559 651.809387,211.639664 
	C651.509888,211.697281 651.210327,211.754898 650.910828,211.812500 
	C649.274292,205.192078 647.875366,198.500107 645.911621,191.978210 
	C644.747253,188.111099 642.692017,184.512222 640.933228,180.458725 
	C650.938293,181.675888 651.631592,189.938629 653.542908,197.774582 
z"/>
<path fill="#E0D4B5" opacity="1.000000" stroke="none" 
	d="
M130.868546,231.551849 
	C127.248734,242.050018 119.607162,248.094818 109.802780,252.755066 
	C123.473442,259.462891 126.698616,270.927704 124.642769,284.330170 
	C122.309753,299.539459 113.159401,309.732849 98.824944,314.532379 
	C92.007919,316.814880 84.514961,317.732117 77.283241,317.985687 
	C62.473713,318.504883 47.633835,318.164154 32.806465,318.154816 
	C31.837294,318.154205 30.868242,317.961151 29.453768,317.810089 
	C31.716824,304.503479 33.898926,291.411499 36.176285,278.336121 
	C41.057377,250.311493 46.048363,222.305771 50.811306,194.261200 
	C51.333012,191.189346 52.208450,190.025116 55.447128,190.116882 
	C69.764877,190.522537 84.119438,190.207809 98.402061,191.096207 
	C110.345276,191.839081 121.188339,195.727783 128.189087,206.614609 
	C133.191299,214.393539 132.839767,222.661957 130.868546,231.551849 
M84.317017,261.999237 
	C77.375023,261.999237 70.433037,261.999237 63.327984,261.999237 
	C61.203110,274.160461 59.155666,285.878510 57.042095,297.975037 
	C65.746208,297.975037 74.204636,298.437042 82.583786,297.820923 
	C88.690765,297.371796 94.005562,294.189758 97.594658,289.008026 
	C101.693207,283.090759 103.218292,276.457245 100.277679,269.683075 
	C97.509483,263.306122 91.493896,262.178741 84.317017,261.999237 
M98.106941,240.793304 
	C100.202194,238.922836 102.723808,237.354263 104.305733,235.120285 
	C107.817474,230.161041 109.429367,224.482391 106.926628,218.628906 
	C104.486603,212.922119 99.276253,210.964798 93.486542,210.787369 
	C86.523659,210.573990 79.549248,210.736893 72.245140,210.736893 
	C70.320671,221.743210 68.416039,232.636078 66.427231,244.010361 
	C77.207497,243.568619 87.612503,245.946686 98.106941,240.793304 
z"/>
<path fill="#DFD4B5" opacity="1.000000" stroke="none" 
	d="
M595.923767,267.865723 
	C600.391357,241.872711 604.804260,216.311615 609.265015,190.472900 
	C617.163940,190.472900 624.929321,190.472900 633.156311,190.472900 
	C639.649231,217.238678 646.169495,244.117508 652.689819,270.996307 
	C653.018982,270.972015 653.348083,270.947723 653.677246,270.923401 
	C658.404907,244.064789 663.132507,217.206192 667.865845,190.315216 
	C676.028137,190.315216 683.659851,190.315216 691.995667,190.315216 
	C684.597961,232.909409 677.246277,275.239044 669.843994,317.859711 
	C662.027954,317.859711 654.275696,317.859711 646.236938,317.859711 
	C639.700195,291.220123 633.174438,264.625336 626.648621,238.030548 
	C626.297119,237.984879 625.945557,237.939209 625.594055,237.893539 
	C624.737976,242.434845 623.831299,246.967300 623.034607,251.518997 
	C619.335754,272.651276 615.711853,293.796967 611.875000,314.904022 
	C611.649780,316.142944 609.830566,317.972992 608.690186,318.020630 
	C601.730835,318.311340 594.753235,318.165863 587.159058,318.165863 
	C590.118042,301.224731 592.993530,284.761200 595.923767,267.865723 
z"/>
<path fill="#E0D4B5" opacity="1.000000" stroke="none" 
	d="
M207.029755,188.972961 
	C223.653641,191.455780 235.868515,201.874771 238.774750,218.891266 
	C243.784943,248.226944 239.279861,276.307892 221.931702,301.117889 
	C210.449432,317.538971 190.595703,323.807495 171.455841,317.962341 
	C156.483887,313.390015 150.101837,301.465088 147.095978,287.214111 
	C144.715515,275.928101 146.338699,264.724426 148.002731,253.493225 
	C150.410950,237.239197 153.859085,221.391846 164.153122,208.000656 
	C174.857300,194.075897 188.752319,187.044434 207.029755,188.972961 
M210.709641,275.071655 
	C212.450943,265.245728 214.660034,255.472580 215.777405,245.576202 
	C216.590668,238.373306 216.534485,230.950089 215.808167,223.731522 
	C215.145248,217.142776 211.687759,211.565186 204.744888,209.708466 
	C197.729721,207.832382 190.759811,208.778290 186.046204,214.668777 
	C182.387680,219.240768 178.764374,224.520172 177.335968,230.055557 
	C174.396179,241.447784 172.439972,253.162628 171.044754,264.859894 
	C170.149628,272.364288 170.207199,280.180206 171.235443,287.664459 
	C172.432312,296.376129 179.145203,300.569794 187.909927,299.692444 
	C193.676270,299.115295 198.802704,296.831818 201.939713,292.055573 
	C205.273804,286.979187 207.628708,281.259735 210.709641,275.071655 
z"/>
<path fill="#E0D4B5" opacity="1.000000" stroke="none" 
	d="
M481.565552,284.270844 
	C480.479431,259.376343 483.066681,235.429840 495.354980,213.813538 
	C505.120270,196.635529 520.046509,187.134735 540.692017,188.882996 
	C556.097900,190.187561 568.067627,200.083694 572.957397,215.322205 
	C577.107849,228.256958 576.119568,241.213577 574.088562,254.358398 
	C571.497314,271.129517 567.791443,287.323608 557.114990,301.166412 
	C544.957214,316.929779 525.873352,323.723846 506.927643,318.073883 
	C490.556183,313.191620 484.368622,300.161774 481.565552,284.270844 
M549.413513,254.957047 
	C549.848022,252.331314 550.580811,249.714615 550.660767,247.078110 
	C550.896973,239.297012 551.459412,231.456253 550.775146,223.738052 
	C550.191162,217.150513 546.680298,211.568954 539.740723,209.707336 
	C532.727722,207.826004 525.756958,208.781952 521.038879,214.655579 
	C517.373657,219.218475 513.955505,224.509186 512.302002,230.037064 
	C509.697937,238.742874 508.053223,247.857346 507.135895,256.913635 
	C506.104919,267.091980 505.401215,277.479492 506.291504,287.623627 
	C507.076019,296.562897 514.317444,300.734253 523.337708,299.650909 
	C531.769531,298.638275 537.051697,293.430725 540.971558,286.442413 
	C546.302795,276.937744 547.819824,266.387360 549.413513,254.957047 
z"/>
<path fill="#E0D4B5" opacity="1.000000" stroke="none" 
	d="
M288.455078,483.653442 
	C278.852386,486.679901 269.458649,487.600769 260.038025,485.094330 
	C246.555099,481.507080 237.911453,470.751160 235.856018,456.941528 
	C234.111938,445.223602 236.959061,434.094666 238.834824,422.802734 
	C242.243439,402.283295 245.726273,381.776154 249.196289,361.266968 
	C249.417938,359.956940 249.795288,358.673309 250.163101,357.110107 
	C257.909668,357.110107 265.669250,357.110107 274.007446,357.110107 
	C272.174744,368.164764 270.347565,379.066833 268.563202,389.975922 
	C265.608978,408.037842 262.615479,426.093933 259.811676,444.179291 
	C259.359680,447.094543 259.648987,450.159790 259.860321,453.136902 
	C260.893066,467.687103 275.057739,469.152435 282.938782,463.782867 
	C291.144470,458.192139 293.393677,449.490326 294.948395,440.552429 
	C299.766205,412.855316 304.423981,385.130341 309.191498,357.136627 
	C317.049683,357.136627 324.801819,357.136627 333.071411,357.136627 
	C331.370178,367.258911 329.749542,377.206482 328.019012,387.134949 
	C324.390930,407.949890 321.355133,428.897400 316.830994,449.517303 
	C313.401642,465.147461 304.511566,477.415741 288.455078,483.653442 
z"/>
<path fill="#E0D4B5" opacity="1.000000" stroke="none" 
	d="
M357.159729,393.178650 
	C359.302277,380.984650 361.380066,369.218689 363.498291,357.223511 
	C364.410675,357.081512 365.196716,356.853912 365.983124,356.852539 
	C378.638123,356.830139 391.299683,356.580078 403.946503,356.902496 
	C419.149292,357.290070 432.090820,362.486237 439.437653,376.784149 
	C448.491455,394.404144 441.746185,417.283112 425.134552,428.320190 
	C415.019501,435.040771 403.942871,437.565460 392.096222,437.829498 
	C390.764740,437.859161 389.430115,437.789062 388.100342,437.845276 
	C383.338013,438.046478 377.041077,436.533447 374.243073,438.991241 
	C371.383545,441.503143 371.887756,447.911072 371.042816,452.635498 
	C369.315826,462.292145 367.768066,471.982605 365.874176,481.605530 
	C365.630341,482.844543 363.805695,484.639252 362.649170,484.689117 
	C355.859802,484.981873 349.051453,484.832977 341.416229,484.832977 
	C346.703278,454.070312 351.899078,423.838501 357.159729,393.178650 
M384.192230,377.431732 
	C381.825256,390.762604 379.458313,404.093445 377.008362,417.891724 
	C383.895844,417.891724 390.064178,418.228607 396.182648,417.819702 
	C407.945740,417.033569 415.906219,410.371063 418.490417,399.743011 
	C421.852661,385.915100 415.095947,377.128815 400.962860,376.993774 
	C395.634186,376.942871 390.304749,376.971924 384.192230,377.431732 
z"/>
<path fill="#C42B3F" opacity="1.000000" stroke="none" 
	d="
M501.785492,581.896301 
	C504.045563,583.273071 505.924988,584.777039 507.980377,586.557739 
	C477.170898,599.596436 444.906830,607.486694 411.770355,611.969727 
	C377.288055,616.634888 342.696594,617.461121 308.072662,613.951111 
	C244.655136,607.522095 184.748428,590.680481 132.323578,552.785583 
	C106.506653,534.124084 85.255013,511.272217 73.674797,481.047882 
	C69.551003,470.284760 67.798950,458.608154 65.065628,447.323975 
	C64.770515,446.105652 65.153114,444.723206 66.252205,443.066498 
	C66.734024,444.224792 67.403664,445.341675 67.669617,446.547577 
	C71.995392,466.162292 81.211617,483.347412 93.675636,498.903259 
	C126.588860,539.981079 169.125519,566.736938 218.758667,582.968750 
	C272.524384,600.551941 327.688568,606.534302 383.931274,602.170654 
	C423.667847,599.087708 462.986725,593.049133 501.785492,581.896301 
z"/>
<path fill="#DFD4B5" opacity="1.000000" stroke="none" 
	d="
M201.662796,464.607910 
	C187.795044,486.835938 159.012711,491.040985 141.727570,482.149872 
	C130.923325,476.592407 124.858238,467.086243 123.210274,455.732239 
	C118.971123,426.525635 122.868805,398.476166 140.371765,373.885193 
	C153.984024,354.760620 181.211472,349.207458 200.065887,360.829559 
	C213.695572,369.231110 217.354126,382.655701 218.115891,397.782959 
	C210.069489,397.782959 202.468414,397.782959 194.380402,397.782959 
	C194.237381,395.585297 194.164581,393.471191 193.952621,391.371155 
	C192.584473,377.815826 180.548126,371.026093 168.112457,376.714996 
	C162.066055,379.480988 157.950958,384.037323 155.099838,389.943817 
	C149.703995,401.122040 148.574554,413.285278 147.116577,425.313171 
	C146.159546,433.208313 145.500488,441.242249 145.840134,449.165497 
	C146.250854,458.747162 150.843796,464.644775 157.270294,466.008911 
	C166.665131,468.003143 176.126129,464.355164 180.703049,456.545715 
	C182.699112,453.139893 183.950562,449.297699 185.811752,445.031067 
	C192.936646,445.031067 200.671219,445.031067 209.964630,445.031067 
	C207.151535,451.735901 204.513123,458.024353 201.662796,464.607910 
z"/>
<path fill="#DCD1B3" opacity="1.000000" stroke="none" 
	d="
M128.546936,188.826599 
	C129.302826,187.528229 129.760406,185.851013 130.858078,184.986694 
	C161.500671,160.857285 195.526443,142.903427 232.284714,130.110504 
	C290.316711,109.913742 349.974854,103.429352 411.004089,109.956268 
	C478.364227,117.160248 540.271362,139.125336 595.368835,179.124100 
	C596.710449,180.098053 598.004028,181.138153 599.487976,182.276230 
	C598.468201,185.397903 597.458923,188.487640 596.298523,192.039764 
	C594.204346,190.546692 592.071411,189.059189 589.972717,187.524796 
	C544.238647,154.087448 493.105408,133.461975 437.477966,123.826180 
	C362.537811,110.845016 289.496643,117.702835 218.704941,145.938446 
	C189.311447,157.662201 161.998291,173.123688 136.516678,192.838715 
	C134.617599,192.308289 133.282349,191.650726 131.947098,190.993164 
	C131.947098,190.993164 131.961456,191.059341 131.875031,190.746719 
	C131.192093,190.243454 130.595581,190.052811 129.999069,189.862167 
	C129.999069,189.862167 130.001801,189.970306 129.937927,189.631104 
	C129.431671,189.136810 128.989304,188.981705 128.546936,188.826599 
z"/>
<path fill="#DDD2B4" opacity="1.000000" stroke="none" 
	d="
M411.768555,212.571289 
	C410.327454,211.591232 408.832428,210.612839 407.322327,210.588898 
	C398.161896,210.443817 388.997955,210.527344 379.835297,210.505966 
	C378.226990,210.502213 376.618988,210.363434 374.408081,210.258362 
	C375.606659,203.299881 376.722198,196.823532 377.829987,190.392120 
	C411.447540,190.392120 444.557373,190.392120 478.029877,190.392120 
	C476.960968,196.555435 476.117950,202.473373 474.756134,208.269409 
	C474.518402,209.281097 472.108795,210.388046 470.681549,210.416672 
	C461.189453,210.607040 451.691681,210.515976 442.195770,210.516388 
	C440.383148,210.516479 438.570526,210.516418 436.293518,210.516418 
	C430.061096,246.322449 423.879791,281.834778 417.626984,317.757935 
	C409.786469,317.757935 401.909119,317.757935 393.428711,317.757935 
	C399.542328,282.725128 405.624969,247.869583 411.768555,212.571289 
z"/>
<path fill="#DFD4B5" opacity="1.000000" stroke="none" 
	d="
M276.972870,190.719086 
	C284.904266,190.397842 292.534302,190.397842 300.829071,190.397842 
	C294.603394,226.216232 288.415131,261.819275 282.129700,297.981384 
	C301.393585,297.981384 320.431244,297.981384 340.210175,297.981384 
	C339.026428,304.912506 337.950684,311.211243 336.819733,317.833405 
	C309.570129,317.833405 282.361450,317.833405 254.615616,317.833405 
	C256.131226,308.816467 257.576233,300.012726 259.094879,291.221649 
	C264.811188,258.131287 270.550873,225.044998 276.292084,191.958954 
	C276.347351,191.640396 276.541992,191.346008 276.972870,190.719086 
z"/>
<path fill="#F5F7F9" opacity="1.000000" stroke="none" 
	d="
M483.544861,560.999023 
	C484.214966,561.337402 484.514435,561.774841 484.910736,562.464844 
	C428.118744,586.509277 368.739532,594.384155 307.539551,590.240356 
	C259.557281,586.991577 213.515366,576.091431 170.497314,554.070251 
	C141.825470,539.393066 116.591965,520.437866 97.769524,493.788330 
	C86.829315,478.298737 80.235786,461.083557 77.034470,442.486237 
	C76.962555,442.068481 77.273552,441.584869 78.589745,440.066589 
	C78.802872,440.830109 79.033958,441.589172 79.226547,442.357819 
	C88.412361,479.020721 111.977448,505.044159 141.848816,526.144165 
	C177.430725,551.277893 217.471802,566.027039 259.854736,574.459473 
	C335.391479,589.488220 409.956757,585.975830 483.544861,560.999023 
z"/>
<path fill="#B81232" opacity="1.000000" stroke="none" 
	d="
M444.056091,359.929962 
	C453.959290,366.239685 458.246887,376.109924 459.976166,386.985657 
	C465.216827,419.945496 442.719360,448.140442 408.666168,451.750458 
	C403.871674,452.258759 399.027863,452.712646 394.223022,452.584839 
	C390.276947,452.479889 388.661774,453.764282 388.085205,457.731110 
	C386.673157,467.446472 384.839691,477.101532 383.118500,486.770691 
	C381.476379,495.995758 377.174469,499.603516 367.757141,499.676544 
	C361.595184,499.724335 355.429352,499.800323 349.271698,499.630493 
	C346.555237,499.555573 343.854706,498.901947 341.143829,497.334747 
	C342.328156,497.212067 343.511902,496.990601 344.696930,496.983307 
	C350.692505,496.946320 356.688629,496.999054 362.684113,496.956207 
	C371.829987,496.890839 376.253021,493.233429 377.822388,484.388733 
	C379.566284,474.560120 381.485016,464.751953 382.818604,454.866180 
	C383.378601,450.715179 385.077240,449.844971 388.915771,449.881744 
	C405.229462,450.037994 420.592255,446.827942 434.116791,436.889465 
	C458.114807,419.254608 462.654541,384.251190 443.739166,360.734375 
	C443.727875,360.291199 444.056091,359.929962 444.056091,359.929962 
z"/>
<path fill="#BD1131" opacity="1.000000" stroke="none" 
	d="
M348.949738,368.976776 
	C344.614258,394.288452 340.152954,419.145111 336.101044,444.068268 
	C333.530365,459.880493 328.669342,474.507660 316.631134,485.739990 
	C302.373688,499.043091 285.388000,503.457336 266.301300,500.412537 
	C265.869080,500.343597 265.477356,500.020813 263.940125,499.255615 
	C268.742981,498.956421 272.421783,498.824036 276.081268,498.483856 
	C302.992981,495.982147 323.667175,478.192780 328.848572,451.628143 
	C334.450653,422.906677 338.989532,393.978180 344.034668,365.147400 
	C345.013000,359.556671 346.362305,353.986938 342.438416,348.679230 
	C347.490631,349.974884 350.362366,353.526886 350.228546,358.667480 
	C350.142578,361.970062 349.429321,365.256317 348.949738,368.976776 
z"/>
<path fill="#B91232" opacity="1.000000" stroke="none" 
	d="
M440.403229,257.320984 
	C442.220459,247.065674 444.183960,237.265533 445.531555,227.381409 
	C446.082825,223.337723 447.882599,222.661835 451.395538,222.741867 
	C459.861359,222.934799 468.334503,222.804398 477.420074,223.745819 
	C476.046173,224.321472 474.687683,225.346298 473.295685,225.394012 
	C467.639160,225.587967 461.966461,225.640015 456.311523,225.429001 
	C452.795624,225.297791 451.444489,226.549591 450.843750,230.104767 
	C445.768524,260.142334 440.498016,290.147034 435.241577,320.153778 
	C433.612488,329.453552 429.335510,333.036865 419.979156,333.090332 
	C413.316986,333.128387 406.651917,333.198090 399.993347,333.037323 
	C397.442932,332.975708 394.907043,332.312927 392.364532,331.924042 
	C392.401581,331.408264 392.438629,330.892487 392.475677,330.376709 
	C399.306305,330.376709 406.136902,330.382233 412.967499,330.375488 
	C424.788544,330.363800 428.141663,327.588104 430.223541,315.770813 
	C433.629791,296.436249 436.946869,277.085999 440.403229,257.320984 
z"/>
<path fill="#B81232" opacity="1.000000" stroke="none" 
	d="
M244.523071,200.618042 
	C241.714340,196.678787 239.111526,193.045471 236.508713,189.412170 
	C236.774658,189.106049 237.040604,188.799942 237.306534,188.493835 
	C240.183594,191.412582 243.509827,194.011322 245.857880,197.306961 
	C254.749603,209.786987 259.526978,223.168442 256.100861,239.002396 
	C252.621948,255.080200 250.008850,271.365082 247.564514,287.641602 
	C245.008377,304.662598 234.755219,316.149963 221.419128,325.425476 
	C210.481003,333.033112 197.940964,335.292755 184.807419,334.746490 
	C183.816589,334.705292 182.824158,334.565186 181.848831,334.383301 
	C181.601227,334.337128 181.416550,333.953583 180.758606,333.249664 
	C182.051743,332.777496 183.142929,332.047333 184.249329,332.023590 
	C213.072083,331.404205 231.736908,315.789642 242.053360,290.410004 
	C251.471207,267.241119 256.124634,242.833694 250.967117,217.672241 
	C249.785080,211.905563 246.854736,206.497253 244.523071,200.618042 
z"/>
<path fill="#A81335" opacity="1.000000" stroke="none" 
	d="
M288.000061,330.295959 
	C303.808441,330.295349 319.116974,330.336639 334.425140,330.277649 
	C343.512024,330.242645 347.411682,326.879425 349.006226,317.997681 
	C349.887238,313.090424 351.050293,308.214417 351.582672,303.270081 
	C352.006866,299.330170 351.668243,295.308105 351.668243,291.461426 
	C355.177032,292.106140 358.187408,295.601013 357.570160,300.929230 
	C356.654297,308.835052 355.322205,316.751648 353.363373,324.459320 
	C351.737610,330.856323 347.331726,333.296844 339.474609,333.325256 
	C320.006592,333.395630 300.538177,333.354095 281.069916,333.353760 
	C274.580536,333.353638 268.086304,333.486053 261.604004,333.268707 
	C258.798462,333.174652 256.017487,332.348236 253.225357,331.854492 
	C253.288483,331.334900 253.351608,330.815308 253.414734,330.295715 
	C264.776489,330.295715 276.138275,330.295715 288.000061,330.295959 
z"/>
<path fill="#BD1131" opacity="1.000000" stroke="none" 
	d="
M290.908173,364.092896 
	C286.313934,391.400421 281.770111,418.291229 277.274506,445.190094 
	C276.974762,446.983734 277.342163,448.927277 276.838928,450.636047 
	C276.452332,451.948761 275.183228,453.001587 274.306580,454.170013 
	C273.466827,453.035950 271.829651,451.837402 271.915344,450.778259 
	C272.516724,443.344208 273.177643,435.890930 274.371582,428.533386 
	C278.045166,405.894745 282.108124,383.318420 285.653290,360.660553 
	C286.254944,356.815155 285.045044,352.686310 284.701355,349.001678 
	C289.825134,350.411713 291.941528,354.797211 290.908173,364.092896 
z"/>
<path fill="#BE1131" opacity="1.000000" stroke="none" 
	d="
M297.697083,279.619843 
	C302.630920,251.163956 307.560883,223.152832 312.231750,195.098572 
	C312.902924,191.067474 312.324738,186.828339 312.324738,183.072281 
	C316.775421,184.374832 319.111450,189.002075 317.816437,196.727264 
	C316.248260,206.082138 314.578522,215.419998 312.948914,224.764542 
	C309.632599,243.781174 306.259583,262.788239 303.045563,281.822144 
	C302.466003,285.254486 301.340607,287.161926 296.957520,285.575317 
	C297.162994,283.835938 297.386566,281.943359 297.697083,279.619843 
z"/>
<path fill="#AE1435" opacity="1.000000" stroke="none" 
	d="
M42.789883,333.515991 
	C39.219990,333.395538 36.089321,333.216675 32.521038,333.106293 
	C30.767523,332.584259 29.451620,331.993744 28.135719,331.403229 
	C28.180525,331.132263 28.225330,330.861298 28.270138,330.590332 
	C29.653017,330.500397 31.035330,330.342499 32.418865,330.330933 
	C49.383877,330.189606 66.376114,330.623505 83.307014,329.796814 
	C102.260208,328.871307 118.676590,322.044098 129.420395,305.309509 
	C131.905350,301.438934 133.580200,297.048248 135.602783,292.947723 
	C138.858963,298.218628 138.328690,303.167938 134.604889,308.560608 
	C123.553574,324.564789 107.711311,331.506226 89.109138,332.587585 
	C73.850502,333.474609 58.524979,333.211121 42.789883,333.515991 
z"/>
<path fill="#BA1132" opacity="1.000000" stroke="none" 
	d="
M218.932526,437.062195 
	C222.261490,436.761444 223.241394,438.686768 223.308685,441.585327 
	C223.435837,447.062988 223.751282,452.540344 223.707977,458.015656 
	C223.692764,459.940216 223.073181,461.943542 222.360199,463.766449 
	C212.924286,487.891663 189.167267,502.854218 162.710678,501.372742 
	C159.708679,501.204590 156.717407,500.844910 153.721161,500.574066 
	C153.739029,500.160889 153.756897,499.747711 153.774750,499.334534 
	C159.258163,498.911926 164.779388,498.765381 170.218536,498.019897 
	C196.546906,494.411530 217.394989,473.584900 220.725449,447.356964 
	C221.117294,444.271057 219.700058,440.955383 219.051636,437.383850 
	C218.981827,437.021484 218.932526,437.062195 218.932526,437.062195 
z"/>
<path fill="#B61232" opacity="1.000000" stroke="none" 
	d="
M540.642029,332.638367 
	C528.908447,335.409637 517.635437,336.024567 506.365997,331.596558 
	C542.753845,336.084015 565.636658,318.760559 579.518982,286.604858 
	C579.638489,297.348663 576.813171,306.696991 569.287964,314.561676 
	C561.295349,322.914886 552.206360,329.300354 540.642029,332.638367 
z"/>
<path fill="#BC1131" opacity="1.000000" stroke="none" 
	d="
M165.424927,421.545776 
	C164.279251,432.527802 163.210892,443.075439 162.107697,453.967072 
	C159.143219,454.982086 158.025391,452.671417 158.064194,449.997864 
	C158.172409,442.543121 158.061691,435.011932 159.103104,427.661926 
	C160.519989,417.662048 162.659332,407.737152 165.063705,397.920929 
	C165.807419,394.884460 168.072464,391.981659 170.271805,389.600220 
	C173.126923,386.508728 176.845474,386.118591 181.224640,388.468414 
	C167.533722,395.574432 167.865540,408.964813 165.424927,421.545776 
z"/>
<path fill="#B01333" opacity="1.000000" stroke="none" 
	d="
M629.793640,301.449188 
	C632.444763,309.947906 630.274719,317.854980 627.563660,325.228699 
	C626.376648,328.457214 621.849548,332.224976 618.516968,332.562164 
	C608.975342,333.527496 599.268066,332.908905 589.627808,332.777527 
	C588.464050,332.761719 587.311646,331.913727 586.309753,330.331085 
	C593.505249,330.331085 600.700806,330.349060 607.896240,330.326813 
	C618.335266,330.294556 622.323364,326.853577 623.991455,316.665009 
	C625.063293,310.118378 626.268005,303.593536 628.301025,296.836121 
	C628.765076,298.244934 629.229187,299.653748 629.793640,301.449188 
z"/>
<path fill="#B41233" opacity="1.000000" stroke="none" 
	d="
M570.268372,187.699463 
	C579.043335,192.511963 583.611206,200.722610 587.926758,209.233994 
	C592.373840,218.004730 591.601807,226.792542 588.488892,235.813583 
	C587.954346,217.893372 583.199463,201.659225 570.155029,188.269165 
	C570.115417,187.868866 570.268372,187.699463 570.268372,187.699463 
z"/>
<path fill="#B61232" opacity="1.000000" stroke="none" 
	d="
M215.442474,355.449463 
	C229.363037,364.383179 235.209412,380.637054 230.241852,397.342407 
	C229.468460,381.958221 225.789673,368.040649 215.134827,356.295593 
	C215.153625,355.811890 215.442474,355.449463 215.442474,355.449463 
z"/>
<path fill="#A61435" opacity="1.000000" stroke="none" 
	d="
M196.766388,410.059937 
	C202.825439,410.057190 208.491562,409.809631 214.126953,410.120117 
	C220.464127,410.469208 225.876862,409.166412 229.881226,402.613800 
	C229.423355,405.581940 229.440903,407.670227 228.713120,409.454559 
	C228.179108,410.763794 226.681229,412.601776 225.589996,412.617523 
	C215.968491,412.756500 206.340668,412.588776 196.718216,412.363068 
	C195.591934,412.336639 194.486740,411.410431 192.104462,410.322723 
	C194.487198,410.176392 195.423553,410.118866 196.766388,410.059937 
z"/>
<path fill="#B31535" opacity="1.000000" stroke="none" 
	d="
M131.996857,191.332947 
	C133.282349,191.650726 134.617599,192.308289 136.247665,193.083435 
	C139.429611,197.045883 142.401489,200.830704 145.180130,204.752457 
	C147.975754,208.698135 148.239807,212.714172 144.344650,217.143768 
	C143.197449,206.928040 138.781464,198.703064 131.996857,191.332947 
z"/>
<path fill="#B91232" opacity="1.000000" stroke="none" 
	d="
M489.904602,187.758484 
	C489.442474,186.016479 489.034271,184.671310 488.485901,182.864288 
	C493.048035,184.007721 495.279510,187.186401 494.941650,190.562103 
	C494.613251,193.843536 492.145111,196.910843 490.616547,200.072159 
	C490.144623,199.843033 489.672668,199.613907 489.200745,199.384781 
	C489.453339,195.641632 489.705963,191.898483 489.904602,187.758484 
z"/>
<path fill="#B41233" opacity="1.000000" stroke="none" 
	d="
M395.304749,225.385986 
	C388.200714,225.311295 381.530121,225.171494 374.859528,225.031708 
	C374.860626,224.338974 374.861694,223.646240 374.862793,222.953506 
	C381.907684,222.953506 388.952606,222.953506 395.997528,222.953506 
	C395.911072,223.742630 395.824646,224.531769 395.304749,225.385986 
z"/>
<path fill="#B61232" opacity="1.000000" stroke="none" 
	d="
M136.095566,251.671310 
	C135.617844,254.793671 135.174927,257.546051 134.728836,260.318176 
	C129.339218,254.636703 129.422348,253.979553 136.608902,247.784256 
	C136.417831,249.188477 136.274094,250.244919 136.095566,251.671310 
z"/>
<path fill="#B31535" opacity="1.000000" stroke="none" 
	d="
M130.172745,190.126221 
	C130.595581,190.052811 131.192093,190.243454 131.908310,190.740479 
	C131.467484,190.827988 130.906952,190.609116 130.172745,190.126221 
z"/>
<path fill="#B81232" opacity="1.000000" stroke="none" 
	d="
M443.549072,360.457306 
	C443.116302,360.185272 442.862335,359.747162 442.608368,359.309021 
	C443.008118,359.358765 443.407837,359.408508 443.931824,359.694092 
	C444.056091,359.929962 443.727875,360.291199 443.549072,360.457306 
z"/>
<path fill="#B61232" opacity="1.000000" stroke="none" 
	d="
M215.001694,355.986847 
	C214.426498,355.877716 214.003235,355.593597 213.579971,355.309509 
	C214.037918,355.257385 214.495880,355.205231 215.198151,355.301270 
	C215.442474,355.449463 215.153625,355.811890 215.001694,355.986847 
z"/>
<path fill="#B41233" opacity="1.000000" stroke="none" 
	d="
M570.039124,187.953720 
	C569.523865,187.824097 569.084900,187.609634 568.645935,187.395172 
	C569.067200,187.361969 569.488525,187.328766 570.089111,187.497513 
	C570.268372,187.699463 570.115417,187.868866 570.039124,187.953720 
z"/>
<path fill="#BA1132" opacity="1.000000" stroke="none" 
	d="
M219.006973,437.001770 
	C218.906906,436.911407 218.781693,436.840729 218.656494,436.770020 
	C218.786026,436.758118 218.915543,436.746216 218.988800,436.898254 
	C218.932526,437.062195 218.981827,437.021484 219.006973,437.001770 
z"/>
<path fill="#B31535" opacity="1.000000" stroke="none" 
	d="
M128.774567,189.065491 
	C128.989304,188.981705 129.431671,189.136810 129.991974,189.629242 
	C129.740662,189.745850 129.371429,189.525116 128.774567,189.065491 
z"/>
<path fill="#B91232" opacity="1.000000" stroke="none" 
	d="
M488.480499,201.425949 
	C488.448059,201.446167 488.512939,201.405731 488.480499,201.425949 
z"/>
<path fill="#B41233" opacity="1.000000" stroke="none" 
	d="
M372.556763,222.505676 
	C372.537689,222.477142 372.575836,222.534210 372.556763,222.505676 
z"/>
<path fill="#022654" opacity="1.000000" stroke="none" 
	d="
M561.834961,387.948792 
	C589.505798,381.553955 616.196838,382.623688 641.739258,394.885376 
	C682.483704,414.444916 698.617065,457.335022 680.396118,498.686035 
	C665.200989,533.170044 637.731323,554.284668 602.724731,565.893982 
	C571.900879,576.116028 540.931335,576.407715 511.338043,561.667786 
	C481.429962,546.771057 465.140778,522.444946 466.274231,488.380646 
	C467.035797,465.491974 476.964935,445.995239 492.022400,429.110291 
	C510.768250,408.089325 534.236938,394.866455 561.834961,387.948792 
M612.765808,432.810974 
	C596.046021,428.641296 579.326233,424.471619 562.318420,420.230103 
	C559.547180,431.244202 556.893555,441.528534 554.379150,451.846771 
	C550.852234,466.320221 556.173035,478.719879 569.187317,486.071014 
	C571.526489,487.392303 572.229736,488.597870 571.298645,491.174194 
	C569.389648,496.455902 567.759094,501.838257 565.858948,507.653687 
	C569.440613,508.504822 572.563293,509.246826 576.062500,510.078369 
	C577.052002,504.609314 578.214966,499.756927 578.725891,494.836823 
	C579.103821,491.197754 580.254272,489.843903 584.188477,489.633636 
	C598.749146,488.855438 609.052063,480.115845 612.734558,465.988617 
	C614.328674,459.873169 615.762878,453.716125 617.279724,447.580444 
	C618.303040,443.441071 619.343689,439.305969 620.465637,434.812469 
	C617.703552,434.079865 615.635254,433.531250 612.765808,432.810974 
M554.926331,518.767944 
	C551.537781,517.910950 548.143982,517.074219 544.762085,516.191589 
	C540.574890,515.098694 538.080627,516.505005 537.106384,520.867249 
	C535.728821,527.035706 534.257751,533.191895 532.548340,539.275085 
	C531.253601,543.882935 532.921082,546.095581 537.396057,547.177307 
	C552.443542,550.814758 567.442444,554.652588 582.473816,558.357605 
	C587.916626,559.699158 589.568970,558.653809 591.010193,553.075500 
	C592.467041,547.436401 593.856567,541.779297 595.217346,536.116028 
	C596.579041,530.448730 595.727417,528.954102 590.130676,527.535095 
	C578.676086,524.630859 567.199829,521.811584 554.926331,518.767944 
M562.798523,416.766327 
	C574.561646,419.680664 586.327148,422.585541 598.087158,425.512329 
	C607.591248,427.877655 617.064636,430.376923 626.618286,432.519623 
	C627.880066,432.802582 629.536499,431.326324 631.010132,430.664795 
	C630.113220,429.346283 629.336609,427.916229 628.264648,426.760071 
	C627.786743,426.244659 626.717346,426.268799 625.911560,426.067596 
	C604.629578,420.753906 583.346924,415.442688 562.064331,410.131409 
	C560.935730,409.849731 559.707947,409.155396 558.701111,409.393188 
	C557.332947,409.716370 556.133484,410.753540 554.861694,411.484497 
	C555.644043,412.730743 556.161316,414.373260 557.277771,415.119873 
	C558.584229,415.993530 560.412720,416.086487 562.798523,416.766327 
M639.399414,453.534698 
	C636.565369,448.272614 628.902344,445.048920 621.212402,446.039124 
	C620.986084,447.531586 620.748779,449.096191 620.475281,450.900116 
	C622.896362,451.570312 624.952209,452.174316 627.026367,452.707123 
	C634.332092,454.583710 635.881775,458.218414 632.190735,464.878845 
	C629.497803,469.738159 625.047424,472.235565 619.254089,471.206360 
	C614.882690,470.429779 613.761108,472.436249 613.229492,475.928986 
	C629.186157,481.267151 641.766174,470.807770 639.399414,453.534698 
M546.123779,426.072723 
	C542.997192,426.700165 539.239685,426.443939 536.872070,428.134399 
	C531.531189,431.947815 530.073608,440.936401 532.727112,447.832825 
	C535.530701,455.119263 541.982117,459.646545 549.364563,459.508057 
	C550.141602,454.711761 550.141602,454.711792 546.021606,453.089172 
	C538.931091,450.296631 535.746338,442.724365 538.679443,435.934113 
	C540.056702,432.745697 541.923706,431.066803 545.606018,432.352509 
	C547.792908,433.116089 550.088196,433.885101 552.357971,433.961426 
	C553.480347,433.999176 555.372498,432.637329 555.604248,431.612061 
	C555.835144,430.591125 554.712708,428.599945 553.670471,428.096405 
	C551.621704,427.106628 549.217285,426.853119 546.123779,426.072723 
M568.565613,512.000366 
	C564.363708,510.962860 560.204041,509.555481 555.939270,509.068695 
	C554.216187,508.871979 552.263489,510.687103 550.415283,511.586731 
	C551.695740,512.713318 552.802368,514.412048 554.287964,514.863220 
	C559.537476,516.457397 564.912048,517.643860 570.248169,518.948120 
	C575.835327,520.313843 581.432861,521.637146 586.992981,522.971130 
	C588.350647,517.742065 588.062683,517.028015 583.887939,515.883789 
	C579.072754,514.564087 574.205933,513.432983 568.565613,512.000366 
z"/>
<path fill="#032855" opacity="1.000000" stroke="none" 
	d="
M493.475647,559.191589 
	C533.338928,585.525513 575.450134,585.711853 617.757202,567.404785 
	C660.201355,549.038391 688.395996,518.005127 695.581726,470.156921 
	C696.056519,472.413330 696.662354,474.651031 696.986877,476.928833 
	C705.998840,540.186584 658.425415,597.574097 595.204590,604.056763 
	C553.506226,608.332458 519.074707,594.167664 493.007874,560.364746 
	C493.222382,559.578369 493.349030,559.385010 493.475647,559.191589 
z"/>
<path fill="#D7CEB3" opacity="1.000000" stroke="none" 
	d="
M489.569733,555.897705 
	C489.625427,555.946594 489.425720,556.116028 489.425720,556.116028 
	C489.425720,556.116028 489.514038,555.848816 489.569733,555.897705 
z"/>
<path fill="#032855" opacity="1.000000" stroke="none" 
	d="
M492.887207,560.048828 
	C492.764709,559.897827 492.850677,559.469849 493.206146,559.116699 
	C493.349030,559.385010 493.222382,559.578369 492.887207,560.048828 
z"/>
<path fill="#042855" opacity="1.000000" stroke="none" 
	d="
M84.787933,261.999512 
	C91.493896,262.178741 97.509483,263.306122 100.277679,269.683075 
	C103.218292,276.457245 101.693207,283.090759 97.594658,289.008026 
	C94.005562,294.189758 88.690765,297.371796 82.583786,297.820923 
	C74.204636,298.437042 65.746208,297.975037 57.042095,297.975037 
	C59.155666,285.878510 61.203110,274.160461 63.327984,261.999237 
	C70.433037,261.999237 77.375023,261.999237 84.787933,261.999512 
M72.809425,278.302795 
	C72.449211,280.705933 72.089005,283.109039 71.733742,285.479156 
	C75.800842,287.087860 77.778191,285.788513 77.857651,282.136566 
	C77.954788,277.672516 80.215294,276.418915 84.276489,276.855804 
	C85.896614,277.030121 87.580284,276.613861 89.235023,276.466431 
	C89.222656,275.774933 89.210297,275.083466 89.197929,274.391998 
	C84.226089,274.391998 79.250458,274.306274 74.288292,274.525391 
	C73.795715,274.547180 73.385277,276.428833 72.809425,278.302795 
z"/>
<path fill="#052956" opacity="1.000000" stroke="none" 
	d="
M97.760429,240.936707 
	C87.612503,245.946686 77.207497,243.568619 66.427231,244.010361 
	C68.416039,232.636078 70.320671,221.743210 72.245140,210.736893 
	C79.549248,210.736893 86.523659,210.573990 93.486542,210.787369 
	C99.276253,210.964798 104.486603,212.922119 106.926628,218.628906 
	C109.429367,224.482391 107.817474,230.161041 104.305733,235.120285 
	C102.723808,237.354263 100.202194,238.922836 97.760429,240.936707 
M87.393715,231.797867 
	C91.057152,230.826309 94.720947,229.855194 95.714653,224.604355 
	C91.559410,224.108856 87.305878,222.940018 83.308136,223.523560 
	C82.090881,223.701233 81.578453,228.707535 80.653946,231.801102 
	C83.349945,231.801102 84.980415,231.801102 87.393715,231.797867 
z"/>
<path fill="#042855" opacity="1.000000" stroke="none" 
	d="
M210.560410,275.446350 
	C207.628708,281.259735 205.273804,286.979187 201.939713,292.055573 
	C198.802704,296.831818 193.676270,299.115295 187.909927,299.692444 
	C179.145203,300.569794 172.432312,296.376129 171.235443,287.664459 
	C170.207199,280.180206 170.149628,272.364288 171.044754,264.859894 
	C172.439972,253.162628 174.396179,241.447784 177.335968,230.055557 
	C178.764374,224.520172 182.387680,219.240768 186.046204,214.668777 
	C190.759811,208.778290 197.729721,207.832382 204.744888,209.708466 
	C211.687759,211.565186 215.145248,217.142776 215.808167,223.731522 
	C216.534485,230.950089 216.590668,238.373306 215.777405,245.576202 
	C214.660034,255.472580 212.450943,265.245728 210.560410,275.446350 
M200.005371,225.477432 
	C201.023514,224.625748 202.041656,223.774063 203.368530,222.664124 
	C199.203003,219.992462 196.080048,220.966248 193.917389,223.823715 
	C191.852707,226.551727 189.662430,229.712509 189.096344,232.956818 
	C186.447693,248.136520 184.246246,263.397736 182.140808,278.665070 
	C181.816208,281.018951 182.581940,283.635193 183.345291,285.965729 
	C183.608994,286.770844 185.368210,287.190002 186.521149,287.491608 
	C186.700821,287.538605 187.569092,286.036896 187.652878,285.204437 
	C188.913834,272.677063 189.799698,260.103577 191.407150,247.622482 
	C192.401016,239.905640 193.969299,232.139297 200.005371,225.477432 
z"/>
<path fill="#042855" opacity="1.000000" stroke="none" 
	d="
M549.327515,255.387772 
	C547.819824,266.387360 546.302795,276.937744 540.971558,286.442413 
	C537.051697,293.430725 531.769531,298.638275 523.337708,299.650909 
	C514.317444,300.734253 507.076019,296.562897 506.291504,287.623627 
	C505.401215,277.479492 506.104919,267.091980 507.135895,256.913635 
	C508.053223,247.857346 509.697937,238.742874 512.302002,230.037064 
	C513.955505,224.509186 517.373657,219.218475 521.038879,214.655579 
	C525.756958,208.781952 532.727722,207.826004 539.740723,209.707336 
	C546.680298,211.568954 550.191162,217.150513 550.775146,223.738052 
	C551.459412,231.456253 550.896973,239.297012 550.660767,247.078110 
	C550.580811,249.714615 549.848022,252.331314 549.327515,255.387772 
M517.368469,282.753784 
	C517.520264,283.400787 517.474792,284.222656 517.862732,284.660400 
	C518.840759,285.764038 520.014221,286.694519 521.109314,287.694366 
	C521.547974,286.332520 522.252686,284.995209 522.380981,283.604736 
	C523.081055,276.016602 523.045044,268.309448 524.376526,260.841919 
	C526.768677,247.425964 525.804810,232.700912 538.127136,222.623154 
	C534.363525,219.916122 531.255493,220.927780 529.023499,223.686707 
	C526.979614,226.213043 525.040771,229.199066 524.235413,232.289917 
	C520.002686,248.534729 516.883911,264.979889 517.368469,282.753784 
z"/>
<path fill="#042855" opacity="1.000000" stroke="none" 
	d="
M384.583954,377.198120 
	C390.304749,376.971924 395.634186,376.942871 400.962860,376.993774 
	C415.095947,377.128815 421.852661,385.915100 418.490417,399.743011 
	C415.906219,410.371063 407.945740,417.033569 396.182648,417.819702 
	C390.064178,418.228607 383.895844,417.891724 377.008362,417.891724 
	C379.458313,404.093445 381.825256,390.762604 384.583954,377.198120 
M400.339233,388.966736 
	C398.396179,388.966736 396.453094,388.966736 394.325195,388.966736 
	C393.335510,394.893829 392.450897,400.191864 391.587524,405.362610 
	C397.053345,406.912231 397.688538,403.887970 398.123718,400.435608 
	C398.712158,395.767517 398.659271,390.440948 405.850037,391.257721 
	C405.938354,391.267761 406.089142,390.727875 406.467133,389.847778 
	C404.611267,389.537140 402.909729,389.252350 400.339233,388.966736 
z"/>
<path fill="#C21735" opacity="1.000000" stroke="none" 
	d="
M613.166382,432.896790 
	C615.635254,433.531250 617.703552,434.079865 620.465637,434.812469 
	C619.343689,439.305969 618.303040,443.441071 617.279724,447.580444 
	C615.762878,453.716125 614.328674,459.873169 612.734558,465.988617 
	C609.052063,480.115845 598.749146,488.855438 584.188477,489.633636 
	C580.254272,489.843903 579.103821,491.197754 578.725891,494.836823 
	C578.214966,499.756927 577.052002,504.609314 576.062500,510.078369 
	C572.563293,509.246826 569.440613,508.504822 565.858948,507.653687 
	C567.759094,501.838257 569.389648,496.455902 571.298645,491.174194 
	C572.229736,488.597870 571.526489,487.392303 569.187317,486.071014 
	C556.173035,478.719879 550.852234,466.320221 554.379150,451.846771 
	C556.893555,441.528534 559.547180,431.244202 562.318420,420.230103 
	C579.326233,424.471619 596.046021,428.641296 613.166382,432.896790 
M592.614197,484.446655 
	C599.017212,481.795349 604.543579,477.700745 606.690674,471.110199 
	C610.160400,460.459747 612.638550,449.486267 615.613586,438.357056 
	C598.400146,434.068604 581.878540,429.952515 565.007568,425.749390 
	C562.757385,434.721558 560.846069,443.291840 558.433899,451.718811 
	C555.454651,462.127014 557.428101,471.308105 565.106079,478.775482 
	C572.633301,486.096252 581.810120,487.905243 592.614197,484.446655 
z"/>
<path fill="#BE1D3B" opacity="1.000000" stroke="none" 
	d="
M555.329468,518.862610 
	C567.199829,521.811584 578.676086,524.630859 590.130676,527.535095 
	C595.727417,528.954102 596.579041,530.448730 595.217346,536.116028 
	C593.856567,541.779297 592.467041,547.436401 591.010193,553.075500 
	C589.568970,558.653809 587.916626,559.699158 582.473816,558.357605 
	C567.442444,554.652588 552.443542,550.814758 537.396057,547.177307 
	C532.921082,546.095581 531.253601,543.882935 532.548340,539.275085 
	C534.257751,533.191895 535.728821,527.035706 537.106384,520.867249 
	C538.080627,516.505005 540.574890,515.098694 544.762085,516.191589 
	C548.143982,517.074219 551.537781,517.910950 555.329468,518.862610 
M588.558044,529.789185 
	C574.343689,526.229370 560.111145,522.739441 545.926270,519.065796 
	C541.818970,518.002075 539.665771,519.060608 538.816772,523.376648 
	C537.821777,528.434937 536.395142,533.410339 535.097717,538.406555 
	C534.280701,541.552856 535.141113,543.473145 538.524048,544.298340 
	C553.245483,547.889160 567.951538,551.545471 582.632751,555.297058 
	C585.914551,556.135742 587.763428,555.172607 588.561096,551.928772 
	C589.913147,546.430725 591.278076,540.935425 592.688416,535.452148 
	C593.465942,532.429138 592.422241,530.600830 588.558044,529.789185 
z"/>
<path fill="#BF1131" opacity="1.000000" stroke="none" 
	d="
M562.406616,416.642212 
	C560.412720,416.086487 558.584229,415.993530 557.277771,415.119873 
	C556.161316,414.373260 555.644043,412.730743 554.861694,411.484497 
	C556.133484,410.753540 557.332947,409.716370 558.701111,409.393188 
	C559.707947,409.155396 560.935730,409.849731 562.064331,410.131409 
	C583.346924,415.442688 604.629578,420.753906 625.911560,426.067596 
	C626.717346,426.268799 627.786743,426.244659 628.264648,426.760071 
	C629.336609,427.916229 630.113220,429.346283 631.010132,430.664795 
	C629.536499,431.326324 627.880066,432.802582 626.618286,432.519623 
	C617.064636,430.376923 607.591248,427.877655 598.087158,425.512329 
	C586.327148,422.585541 574.561646,419.680664 562.406616,416.642212 
z"/>
<path fill="#BD1131" opacity="1.000000" stroke="none" 
	d="
M639.521729,453.927612 
	C641.766174,470.807770 629.186157,481.267151 613.229492,475.928986 
	C613.761108,472.436249 614.882690,470.429779 619.254089,471.206360 
	C625.047424,472.235565 629.497803,469.738159 632.190735,464.878845 
	C635.881775,458.218414 634.332092,454.583710 627.026367,452.707123 
	C624.952209,452.174316 622.896362,451.570312 620.475281,450.900116 
	C620.748779,449.096191 620.986084,447.531586 621.212402,446.039124 
	C628.902344,445.048920 636.565369,448.272614 639.521729,453.927612 
z"/>
<path fill="#BE1131" opacity="1.000000" stroke="none" 
	d="
M546.541870,426.183838 
	C549.217285,426.853119 551.621704,427.106628 553.670471,428.096405 
	C554.712708,428.599945 555.835144,430.591125 555.604248,431.612061 
	C555.372498,432.637329 553.480347,433.999176 552.357971,433.961426 
	C550.088196,433.885101 547.792908,433.116089 545.606018,432.352509 
	C541.923706,431.066803 540.056702,432.745697 538.679443,435.934113 
	C535.746338,442.724365 538.931091,450.296631 546.021606,453.089172 
	C550.141602,454.711792 550.141602,454.711761 549.364563,459.508057 
	C541.982117,459.646545 535.530701,455.119263 532.727112,447.832825 
	C530.073608,440.936401 531.531189,431.947815 536.872070,428.134399 
	C539.239685,426.443939 542.997192,426.700165 546.541870,426.183838 
z"/>
<path fill="#BE1131" opacity="1.000000" stroke="none" 
	d="
M568.963562,512.110107 
	C574.205933,513.432983 579.072754,514.564087 583.887939,515.883789 
	C588.062683,517.028015 588.350647,517.742065 586.992981,522.971130 
	C581.432861,521.637146 575.835327,520.313843 570.248169,518.948120 
	C564.912048,517.643860 559.537476,516.457397 554.287964,514.863220 
	C552.802368,514.412048 551.695740,512.713318 550.415283,511.586731 
	C552.263489,510.687103 554.216187,508.871979 555.939270,509.068695 
	C560.204041,509.555481 564.363708,510.962860 568.963562,512.110107 
z"/>
<path fill="#B21333" opacity="1.000000" stroke="none" 
	d="
M72.873062,277.875031 
	C73.385277,276.428833 73.795715,274.547180 74.288292,274.525391 
	C79.250458,274.306274 84.226089,274.391998 89.197929,274.391998 
	C89.210297,275.083466 89.222656,275.774933 89.235023,276.466431 
	C87.580284,276.613861 85.896614,277.030121 84.276489,276.855804 
	C80.215294,276.418915 77.954788,277.672516 77.857651,282.136566 
	C77.778191,285.788513 75.800842,287.087860 71.733742,285.479156 
	C72.089005,283.109039 72.449211,280.705933 72.873062,277.875031 
z"/>
<path fill="#C01A37" opacity="1.000000" stroke="none" 
	d="
M86.610878,231.801102 
	C84.980415,231.801102 83.349945,231.801102 80.653946,231.801102 
	C81.578453,228.707535 82.090881,223.701233 83.308136,223.523560 
	C87.305878,222.940018 91.559410,224.108856 95.159836,224.932007 
	C87.519630,225.202423 87.519630,225.202423 86.610878,231.801102 
z"/>
<path fill="#D9C0A8" opacity="1.000000" stroke="none" 
	d="
M87.002296,231.799484 
	C87.519630,225.202423 87.519630,225.202423 95.068832,225.283600 
	C94.720947,229.855194 91.057152,230.826309 87.002296,231.799484 
z"/>
<path fill="#BC1131" opacity="1.000000" stroke="none" 
	d="
M199.739471,225.728973 
	C193.969299,232.139297 192.401016,239.905640 191.407150,247.622482 
	C189.799698,260.103577 188.913834,272.677063 187.652878,285.204437 
	C187.569092,286.036896 186.700821,287.538605 186.521149,287.491608 
	C185.368210,287.190002 183.608994,286.770844 183.345291,285.965729 
	C182.581940,283.635193 181.816208,281.018951 182.140808,278.665070 
	C184.246246,263.397736 186.447693,248.136520 189.096344,232.956818 
	C189.662430,229.712509 191.852707,226.551727 193.917389,223.823715 
	C196.080048,220.966248 199.203003,219.992462 203.368530,222.664124 
	C202.041656,223.774063 201.023514,224.625748 199.739471,225.728973 
z"/>
<path fill="#BD1131" opacity="1.000000" stroke="none" 
	d="
M517.295715,282.321808 
	C516.883911,264.979889 520.002686,248.534729 524.235413,232.289917 
	C525.040771,229.199066 526.979614,226.213043 529.023499,223.686707 
	C531.255493,220.927780 534.363525,219.916122 538.127136,222.623154 
	C525.804810,232.700912 526.768677,247.425964 524.376526,260.841919 
	C523.045044,268.309448 523.081055,276.016602 522.380981,283.604736 
	C522.252686,284.995209 521.547974,286.332520 521.109314,287.694366 
	C520.014221,286.694519 518.840759,285.764038 517.862732,284.660400 
	C517.474792,284.222656 517.520264,283.400787 517.295715,282.321808 
z"/>
<path fill="#B71232" opacity="1.000000" stroke="none" 
	d="
M400.773712,388.967133 
	C402.909729,389.252350 404.611267,389.537140 406.467133,389.847778 
	C406.089142,390.727875 405.938354,391.267761 405.850037,391.257721 
	C398.659271,390.440948 398.712158,395.767517 398.123718,400.435608 
	C397.688538,403.887970 397.053345,406.912231 391.587524,405.362610 
	C392.450897,400.191864 393.335510,394.893829 394.325195,388.966736 
	C396.453094,388.966736 398.396179,388.966736 400.773712,388.967133 
z"/>
<path fill="#FFFDFD" opacity="1.000000" stroke="none" 
	d="
M592.251221,484.614990 
	C581.810120,487.905243 572.633301,486.096252 565.106079,478.775482 
	C557.428101,471.308105 555.454651,462.127014 558.433899,451.718811 
	C560.846069,443.291840 562.757385,434.721558 565.007568,425.749390 
	C581.878540,429.952515 598.400146,434.068604 615.613586,438.357056 
	C612.638550,449.486267 610.160400,460.459747 606.690674,471.110199 
	C604.543579,477.700745 599.017212,481.795349 592.251221,484.614990 
z"/>
<path fill="#FEFBFB" opacity="1.000000" stroke="none" 
	d="
M588.953613,529.876465 
	C592.422241,530.600830 593.465942,532.429138 592.688416,535.452148 
	C591.278076,540.935425 589.913147,546.430725 588.561096,551.928772 
	C587.763428,555.172607 585.914551,556.135742 582.632751,555.297058 
	C567.951538,551.545471 553.245483,547.889160 538.524048,544.298340 
	C535.141113,543.473145 534.280701,541.552856 535.097717,538.406555 
	C536.395142,533.410339 537.821777,528.434937 538.816772,523.376648 
	C539.665771,519.060608 541.818970,518.002075 545.926270,519.065796 
	C560.111145,522.739441 574.343689,526.229370 588.953613,529.876465 
z"/>
</svg>